<?xml version="1.0" encoding="UTF-8"?>
<svg height="16px" viewBox="0 0 16 16" width="16px" xmlns="http://www.w3.org/2000/svg">
    <path d="m 8.5 7 v -1 h -1 v 1 z m 0 0"/>
    <path d="m 14 5 h -12 v 1 h 12 z m 0 0"/>
    <path d="m 2 8 v -4 h -1 v 4 z m 0 0"/>
    <path d="m 14 8 v -1 h -12 v 1 z m 0 0"/>
    <path d="m 15 4 h -1 v 4 h 1 z m 0 0"/>
    <path d="m 14 4 v 10 h -12 v -10 c -1 0 -2 1 -2 2 v 8 c 0 1.128906 1 2 2 2 h 12 c 1 0 2 -0.8125 2 -2 v -8 c 0 -1 -1 -2 -2 -2 z m 0 0"/>
    <path d="m 1 2 v 2 h 1 v -1 h 12 v 1 h 1 v -2 z m 0 0"/>
</svg>
