<?xml version="1.0" encoding="UTF-8"?>
<svg height="16px" viewBox="0 0 16 16" width="16px" xmlns="http://www.w3.org/2000/svg">
    <path d="m 3 1 c -0.554688 0 -1 0.445312 -1 1 v 12 c 0 0.554688 0.445312 1 1 1 h 8 c -0.554688 0 -1 -0.445312 -1 -1 v -1 h -6 v -10 h 8 v 8 h 1 c 0.554688 0 1 0.445312 1 1 v -10 c 0 -0.554688 -0.445312 -1 -1 -1 z m 0 0"/>
    <path d="m 14 12 c 0 -0.554688 -0.445312 -1 -1 -1 h -1 v 2 h -2 v 1 c 0 0.554688 0.445312 1 1 1 z m 0 0"/>
    <path d="m 10 13 h 2 v -2 h -1 c -0.554688 0 -1 0.445312 -1 1 z m 0 0"/>
    <path d="m 5 4 h 6 v 1 h -6 z m 0 0"/>
    <path d="m 5 6 h 6 v 1 h -6 z m 0 0"/>
    <path d="m 5 8 h 6 v 1 h -6 z m 0 0"/>
    <path d="m 5 10 h 4 v 1 h -4 z m 0 0"/>
</svg>
