<?xml version="1.0" encoding="UTF-8"?>
<svg height="128px" viewBox="0 0 128 128" width="128px" xmlns="http://www.w3.org/2000/svg" xmlns:xlink="http://www.w3.org/1999/xlink">
    <filter id="a" height="100%" width="100%" x="0%" y="0%">
        <feColorMatrix color-interpolation-filters="sRGB" values="0 0 0 0 1 0 0 0 0 1 0 0 0 0 1 0 0 0 1 0"/>
    </filter>
    <clipPath id="b">
        <rect height="128" width="128"/>
    </clipPath>
    <clipPath id="c">
        <rect height="128" width="128"/>
    </clipPath>
    <mask id="d">
        <g filter="url(#a)">
            <g clip-path="url(#c)" filter="url(#a)">
                <g clip-path="url(#b)">
                    <path d="m 28 120 c -4.433594 0 -8 -3.699219 -8 -8.296875 v -95.40625 c 0 -4.597656 3.566406 -8.296875 8 -8.296875 h 72 c 4.433594 0 8 3.699219 8 8.296875 v 79.703125 l -24 24 z m 0 0" fill="#ffffea"/>
                    <path d="m 108 96 l -24 24 v -16 c 0 -4.433594 3.566406 -8 8 -8 z m 0 0" fill="#efefca"/>
                    <path d="m 32 26 h 64 v -6 h -64 z m 0 0" fill="#efefca"/>
                    <path d="m 32 42 h 64 v -6 h -64 z m 0 0" fill="#efefca"/>
                    <path d="m 32 58 h 64 v -6 h -64 z m 0 0" fill="#efefca"/>
                    <path d="m 32 74 h 64 v -6 h -64 z m 0 0" fill="#efefca"/>
                    <path d="m 32 90 h 64 v -6 h -64 z m 0 0" fill="#efefca"/>
                    <path d="m 32 106 h 40 v -6 h -40 z m 0 0" fill="#efefca"/>
                </g>
            </g>
        </g>
    </mask>
    <mask id="e">
        <g filter="url(#a)">
            <rect fill-opacity="0.8" height="184.32" width="184.32" x="-28.16" y="-28.16"/>
        </g>
    </mask>
    <linearGradient id="f" gradientTransform="matrix(0 0.37 -0.98462 0 295.38501 -30.360001)" gradientUnits="userSpaceOnUse" x1="300" x2="428" y1="235" y2="235">
        <stop offset="0" stop-color="#f9f06b"/>
        <stop offset="1" stop-color="#f5c211"/>
    </linearGradient>
    <clipPath id="g">
        <rect height="128" width="128"/>
    </clipPath>
    <clipPath id="h">
        <rect height="128" width="128"/>
    </clipPath>
    <path d="m 28 120 c -4.433594 0 -8 -3.699219 -8 -8.296875 v -95.40625 c 0 -4.597656 3.566406 -8.296875 8 -8.296875 h 72 c 4.433594 0 8 3.699219 8 8.296875 v 79.703125 l -24 24 z m 0 0" fill="#ffffea"/>
    <g fill="#efefca">
        <path d="m 108 96 l -24 24 v -16 c 0 -4.433594 3.566406 -8 8 -8 z m 0 0"/>
        <path d="m 32 26 h 64 v -6 h -64 z m 0 0"/>
        <path d="m 32 42 h 64 v -6 h -64 z m 0 0"/>
        <path d="m 32 58 h 64 v -6 h -64 z m 0 0"/>
        <path d="m 32 74 h 64 v -6 h -64 z m 0 0"/>
        <path d="m 32 90 h 64 v -6 h -64 z m 0 0"/>
        <path d="m 32 106 h 40 v -6 h -40 z m 0 0"/>
    </g>
    <g mask="url(#d)">
        <g clip-path="url(#h)">
            <g mask="url(#e)">
                <g clip-path="url(#g)">
                    <path d="m 128 80.640625 v 47.359375 h -128 v -47.359375 z m 0 0" fill="url(#f)"/>
                    <path d="m 13.308594 80.640625 l 47.355468 47.359375 h 21.214844 l -47.359375 -47.359375 z m 42.421875 0 l 47.363281 47.359375 h 21.214844 l -47.363282 -47.359375 z m 42.429687 0 l 29.839844 29.839844 v -21.210938 l -8.628906 -8.628906 z m -98.160156 7.90625 v 21.214844 l 18.238281 18.238281 h 21.214844 z m 0 0"/>
                </g>
            </g>
        </g>
    </g>
</svg>
